#Comment line ignore any data following # character 
#Hierarchical Translation and Rotation (.htr) file 
[Header]	
#Header keywords are followed by a single value 
FileType HTR		#Single word string
DataType HTRS		#Translation followed by rotation and scale data
FileVersion 1		#integer
NumSegments 64		#integer
NumFrames 3		#integer
DataFrameRate 30		#integer, data frame rate in this file
EulerRotationOrder ZYX
CalibrationUnits mm
RotationUnits Degrees
GlobalAxisofGravity Y
BoneLengthAxis Y
ScaleFactor 1.00
[SegmentNames&Hierarchy]
#CHILD	PARENT
Pinger_Root GLOBAL
Pelvis Pinger_Root
L_Hip Pelvis
R_Hip Pelvis
Rear_Leg01 Pelvis
Spine1 Pelvis
L_Leg01 L_Hip
L_Leg02 L_Leg01
L_Leg03 L_Leg02
L_Foot L_Leg03
L_Toe1_01 L_Foot
L_Toe2_01 L_Foot
L_Toe3_01 L_Foot
planeAlignerLeft L_Foot
L_Toe1_02 L_Toe1_01
L_Toe1_03 L_Toe1_02
L_Toe2_02 L_Toe2_01
L_Toe2_03 L_Toe2_02
L_Toe3_02 L_Toe3_01
L_Toe3_03 L_Toe3_02
planeLockWeightLeft planeAlignerLeft
R_Leg01 R_Hip
R_Leg02 R_Leg01
R_Leg03 R_Leg02
R_Foot R_Leg03
planeAlignerRight R_Foot
R_Toe1_01 R_Foot
R_Toe2_01 R_Foot
R_Toe3_01 R_Foot
planeLockWeightRight planeAlignerRight
R_Toe1_02 R_Toe1_01
R_Toe1_03 R_Toe1_02
R_Toe2_02 R_Toe2_01
R_Toe2_03 R_Toe2_02
R_Toe3_02 R_Toe3_01
R_Toe3_03 R_Toe3_02
Rear_Leg02 Rear_Leg01
Rear_Leg03 Rear_Leg02
Rear_Leg04 Rear_Leg03
Rear_Foot Rear_Leg04
planeAlignerCenter Rear_Foot
Rear_Toe1_01 Rear_Foot
Rear_Toe2_01 Rear_Foot
Rear_Toe3_01 Rear_Foot
planeLockWeightCenter planeAlignerCenter
Rear_Toe1_02 Rear_Toe1_01
Rear_Toe1_03 Rear_Toe1_02
Rear_Toe2_02 Rear_Toe2_01
Rear_Toe2_03 Rear_Toe2_02
Rear_Toe3_02 Rear_Toe3_01
Rear_Toe3_03 Rear_Toe3_02
Back_Bone Spine1
Head Spine1
Motor_Bone Back_Bone
Ping_Mechanism Back_Bone
BN_LookIK Head
bottomMouth Head
L_Mouth01 Head
L_mouthFront Head
mouthGun Head
R_Mouth01 Head
R_mouthFront Head
TopMouth Head
weapon_bone Head
[BasePosition]
#SegmentName Tx, Ty, Tz, Rx, Ry, Rz, BoneLength
Pinger_Root 0.000000 0.000000 0.000000 -90.000000 0.000000 0.000000 10.000000 
Pelvis 0.000000 0.000000 0.000000 0.000000 0.000000 0.000000 10.000000 
L_Hip 0.000000 0.000000 0.000000 0.000000 0.000000 0.000000 10.000000 
R_Hip 0.000000 0.000000 0.000000 0.000000 0.000000 0.000000 10.000000 
Rear_Leg01 0.000000 0.000000 0.000000 0.000000 0.000000 0.000000 10.000000 
Spine1 0.000000 0.000000 0.000000 0.000000 0.000000 0.000000 10.000000 
L_Leg01 0.000000 0.000000 0.000000 0.000000 0.000000 0.000000 10.000000 
L_Leg02 0.000000 0.000000 0.000000 0.000000 0.000000 0.000000 10.000000 
L_Leg03 0.000000 0.000000 0.000000 0.000000 0.000000 0.000000 10.000000 
L_Foot 0.000000 0.000000 0.000000 0.000000 0.000000 0.000000 10.000000 
L_Toe1_01 0.000000 0.000000 0.000000 0.000000 0.000000 0.000000 10.000000 
L_Toe2_01 0.000000 0.000000 0.000000 0.000000 0.000000 0.000000 10.000000 
L_Toe3_01 0.000000 0.000000 0.000000 0.000000 0.000000 0.000000 10.000000 
planeAlignerLeft 0.000000 0.000000 0.000000 0.000000 0.000000 0.000000 10.000000 
L_Toe1_02 0.000000 0.000000 0.000000 0.000000 0.000000 0.000000 10.000000 
L_Toe1_03 0.000000 0.000000 0.000000 0.000000 0.000000 0.000000 10.000000 
L_Toe2_02 0.000000 0.000000 0.000000 0.000000 0.000000 0.000000 10.000000 
L_Toe2_03 0.000000 0.000000 0.000000 0.000000 0.000000 0.000000 10.000000 
L_Toe3_02 0.000000 0.000000 0.000000 0.000000 0.000000 0.000000 10.000000 
L_Toe3_03 0.000000 0.000000 0.000000 0.000000 0.000000 0.000000 10.000000 
planeLockWeightLeft 0.000000 0.000000 0.000000 0.000000 0.000000 0.000000 10.000000 
R_Leg01 0.000000 0.000000 0.000000 0.000000 0.000000 0.000000 10.000000 
R_Leg02 0.000000 0.000000 0.000000 0.000000 0.000000 0.000000 10.000000 
R_Leg03 0.000000 0.000000 0.000000 0.000000 0.000000 0.000000 10.000000 
R_Foot 0.000000 0.000000 0.000000 0.000000 0.000000 0.000000 10.000000 
planeAlignerRight 0.000000 0.000000 0.000000 0.000000 0.000000 0.000000 10.000000 
R_Toe1_01 0.000000 0.000000 0.000000 0.000000 0.000000 0.000000 10.000000 
R_Toe2_01 0.000000 0.000000 0.000000 0.000000 0.000000 0.000000 10.000000 
R_Toe3_01 0.000000 0.000000 0.000000 0.000000 0.000000 0.000000 10.000000 
planeLockWeightRight 0.000000 0.000000 0.000000 0.000000 0.000000 0.000000 10.000000 
R_Toe1_02 0.000000 0.000000 0.000000 0.000000 0.000000 0.000000 10.000000 
R_Toe1_03 0.000000 0.000000 0.000000 0.000000 0.000000 0.000000 10.000000 
R_Toe2_02 0.000000 0.000000 0.000000 0.000000 0.000000 0.000000 10.000000 
R_Toe2_03 0.000000 0.000000 0.000000 0.000000 0.000000 0.000000 10.000000 
R_Toe3_02 0.000000 0.000000 0.000000 0.000000 0.000000 0.000000 10.000000 
R_Toe3_03 0.000000 0.000000 0.000000 0.000000 0.000000 0.000000 10.000000 
Rear_Leg02 0.000000 0.000000 0.000000 0.000000 0.000000 0.000000 10.000000 
Rear_Leg03 0.000000 0.000000 0.000000 0.000000 0.000000 0.000000 10.000000 
Rear_Leg04 0.000000 0.000000 0.000000 0.000000 0.000000 0.000000 10.000000 
Rear_Foot 0.000000 0.000000 0.000000 0.000000 0.000000 0.000000 10.000000 
planeAlignerCenter 0.000000 0.000000 0.000000 0.000000 0.000000 0.000000 10.000000 
Rear_Toe1_01 0.000000 0.000000 0.000000 0.000000 0.000000 0.000000 10.000000 
Rear_Toe2_01 0.000000 0.000000 0.000000 0.000000 0.000000 0.000000 10.000000 
Rear_Toe3_01 0.000000 0.000000 0.000000 0.000000 0.000000 0.000000 10.000000 
planeLockWeightCenter 0.000000 0.000000 0.000000 0.000000 0.000000 0.000000 10.000000 
Rear_Toe1_02 0.000000 0.000000 0.000000 0.000000 0.000000 0.000000 10.000000 
Rear_Toe1_03 0.000000 0.000000 0.000000 0.000000 0.000000 0.000000 10.000000 
Rear_Toe2_02 0.000000 0.000000 0.000000 0.000000 0.000000 0.000000 10.000000 
Rear_Toe2_03 0.000000 0.000000 0.000000 0.000000 0.000000 0.000000 10.000000 
Rear_Toe3_02 0.000000 0.000000 0.000000 0.000000 0.000000 0.000000 10.000000 
Rear_Toe3_03 0.000000 0.000000 0.000000 0.000000 0.000000 0.000000 10.000000 
Back_Bone 0.000000 0.000000 0.000000 0.000000 0.000000 0.000000 10.000000 
Head 0.000000 0.000000 0.000000 0.000000 0.000000 0.000000 10.000000 
Motor_Bone 0.000000 0.000000 0.000000 0.000000 0.000000 0.000000 10.000000 
Ping_Mechanism 0.000000 0.000000 0.000000 0.000000 0.000000 0.000000 10.000000 
BN_LookIK 0.000000 0.000000 0.000000 0.000000 0.000000 0.000000 10.000000 
bottomMouth 0.000000 0.000000 0.000000 0.000000 0.000000 0.000000 10.000000 
L_Mouth01 0.000000 0.000000 0.000000 0.000000 0.000000 0.000000 10.000000 
L_mouthFront 0.000000 0.000000 0.000000 0.000000 0.000000 0.000000 10.000000 
mouthGun 0.000000 0.000000 0.000000 0.000000 0.000000 0.000000 10.000000 
R_Mouth01 0.000000 0.000000 0.000000 0.000000 0.000000 0.000000 10.000000 
R_mouthFront 0.000000 0.000000 0.000000 0.000000 0.000000 0.000000 10.000000 
TopMouth 0.000000 0.000000 0.000000 0.000000 0.000000 0.000000 10.000000 
weapon_bone 0.000000 0.000000 0.000000 0.000000 0.000000 0.000000 10.000000 
#Beginning of Data. Separated by tabs
#Fr	Tx	Ty	Tz	Rx	Ry	Rz	SF
[Pinger_Root]
35 -4407.405762 0.000000 0.000000 -0.000075 -0.000000 -0.000020 4407.405762
36 -4537.036133 0.000000 0.000000 -0.000075 -0.000000 -0.000020 4537.036133
37 -4666.665527 0.000000 0.000000 -0.000075 -0.000000 -0.000020 4666.665527
[Pelvis]
35 -470.747864 425.681519 5259.343262 55.951180 -82.313393 13.452287 5297.499512
36 -481.191071 460.191193 5274.768555 55.710701 -84.178192 13.808371 5316.625000
37 -493.809601 486.237854 5283.958496 50.841572 -86.518059 18.288242 5329.211426
[L_Hip]
35 5.766392 125.831482 872.656799 -178.250168 -81.786369 87.376007 881.701050
36 5.766392 125.831482 872.656799 -178.250168 -81.786369 87.376007 881.701050
37 5.766392 125.831482 872.656799 -178.250168 -81.786369 87.376007 881.701050
[R_Hip]
35 5.765438 125.836372 -872.654907 -1.748770 81.786041 87.376961 881.699829
36 5.765438 125.836372 -872.654907 -1.748770 81.786041 87.376961 881.699829
37 5.765438 125.836372 -872.654907 -1.748770 81.786041 87.376961 881.699829
[Rear_Leg01]
35 -192.298416 -925.602966 -0.001907 -152.193604 15.012674 -152.028320 945.367432
36 -192.298416 -925.602966 -0.001907 -152.050766 13.872960 -152.148483 945.367432
37 -192.298416 -925.602966 -0.001907 -152.407974 13.098023 -153.037613 945.367432
[Spine1]
35 290.604584 5.007505 0.000477 -59.853558 22.115063 21.822138 290.647736
36 290.604584 5.007505 0.000477 -59.641464 23.265526 20.442995 290.647736
37 290.604584 5.007505 0.000477 -58.865036 24.295694 18.743008 290.647736
[L_Leg01]
35 761.932007 -0.002384 -0.069261 101.403358 -16.975515 -90.459702 761.932068
36 761.932007 -0.002384 -0.069261 99.171974 -15.307455 -82.705711 761.932068
37 761.932007 -0.002384 -0.069261 95.162849 -12.760597 -74.976265 761.932068
[L_Leg02]
35 1441.140503 -0.000954 -0.000715 2.060760 -0.433139 -136.335693 1441.140503
36 1441.140503 -0.000954 -0.000715 3.042352 -0.294257 -136.503006 1441.140503
37 1441.140503 -0.000954 -0.000715 3.805039 0.023741 -134.050751 1441.140503
[L_Leg03]
35 1686.963989 -0.000715 -0.000954 0.009222 -0.001485 108.290939 1686.963989
36 1686.963989 -0.000715 -0.000954 -0.020754 0.008438 116.290680 1686.963989
37 1686.963989 -0.000715 -0.000954 -0.049411 0.021942 123.024879 1686.963989
[L_Foot]
35 3041.570068 -30.715107 11.297464 -18.552961 13.218619 66.386017 3041.746094
36 3041.570068 -30.715107 11.297464 -17.839405 12.067396 69.785278 3041.746094
37 3041.570068 -30.715107 11.297464 -17.199535 10.877074 73.155594 3041.746094
[L_Toe1_01]
35 -188.216690 -224.732346 -21.137953 88.641647 -1.597165 -139.973129 293.899567
36 -188.216690 -224.732346 -21.137953 88.650986 -1.624213 -139.930862 293.899567
37 -188.216690 -224.732346 -21.137953 88.660263 -1.651261 -139.888550 293.899567
[L_Toe2_01]
35 200.746536 -219.926590 148.838394 -73.162216 -3.797880 -76.699356 332.896027
36 200.746536 -219.926590 148.838394 -73.288231 -3.774775 -75.849724 332.896027
37 200.746536 -219.926590 148.838394 -73.413895 -3.749809 -75.000031 332.896027
[L_Toe3_01]
35 188.832520 -219.859131 -191.078659 -111.429710 4.518305 -77.798584 347.140900
36 188.832520 -219.859131 -191.078659 -111.269234 4.492932 -76.943672 347.140900
37 188.832520 -219.859131 -191.078659 -111.109123 4.465184 -76.088715 347.140900
[planeAlignerLeft]
35 -18.756399 -789.417053 3.419216 0.000000 -90.000000 -90.001900 789.647217
36 6.944686 -779.488281 1.097430 0.000000 -90.000000 -90.001900 779.519958
37 34.869934 -772.557556 -1.675699 0.000000 -90.000000 -90.001900 773.345886
[L_Toe1_02]
35 413.761139 0.000477 0.000000 0.001450 -18.080538 0.001450 413.761139
36 413.761139 0.000477 0.000000 0.001454 -17.622314 0.001454 413.761139
37 413.761139 0.000477 0.000000 0.001459 -17.164082 0.001459 413.761139
[L_Toe1_03]
35 464.317322 0.000358 -0.000089 -179.992188 83.108551 -179.988678 464.317322
36 464.317322 0.000358 -0.000089 -179.994003 81.492844 -179.990494 464.317322
37 464.317322 0.000358 -0.000089 -179.995239 79.876747 -179.991730 464.317322
[L_Toe2_02]
35 342.235809 -0.000477 0.000238 0.001180 -77.998970 0.001180 342.235809
36 342.235809 -0.000477 0.000238 0.001180 -77.919495 0.001180 342.235809
37 342.235809 -0.000477 0.000238 0.001180 -77.840073 0.001180 342.235809
[L_Toe2_03]
35 420.210846 -0.000715 0.000000 -179.997086 75.899437 -179.993561 420.210846
36 420.210846 -0.000715 0.000000 -179.997025 76.071877 -179.993500 420.210846
37 420.210846 -0.000715 0.000000 -179.996887 76.461220 -179.993362 420.210846
[L_Toe3_02]
35 329.270111 0.000954 0.000000 0.001177 -81.664688 0.001177 329.270111
36 329.270111 0.000954 0.000000 0.001177 -81.591087 0.001177 329.270111
37 329.270111 0.000954 0.000000 0.001177 -81.517487 0.001177 329.270111
[L_Toe3_03]
35 439.137451 -0.001907 0.000954 -179.997711 73.695557 -179.994186 439.137451
36 439.137451 -0.001907 0.000954 -179.997681 73.822227 -179.994141 439.137451
37 439.137451 -0.001907 0.000954 -179.997589 74.169998 -179.994064 439.137451
[planeLockWeightLeft]
35 -0.000153 0.098419 0.076103 -0.011826 -0.004376 0.005620 0.124411
36 -0.000191 0.098534 0.076094 -0.011826 -0.004376 0.005620 0.124496
37 -0.000229 0.098648 0.076084 -0.011826 -0.004376 0.005620 0.124580
[R_Leg01]
35 761.455627 -0.001907 -0.000358 139.668961 -15.764365 75.439636 761.455688
36 761.455627 -0.001907 -0.000358 140.679306 -15.332291 76.139877 761.455688
37 761.455627 -0.001907 -0.000358 141.241364 -15.901558 76.752464 761.455688
[R_Leg02]
35 1441.140625 0.000000 -0.000238 0.207763 0.027434 -84.915771 1441.140625
36 1441.140625 0.000000 -0.000238 0.207575 0.026986 -85.440254 1441.140625
37 1441.140625 0.000000 -0.000238 0.207391 0.026537 -85.964706 1441.140625
[R_Leg03]
35 1686.963989 0.000954 0.001431 -0.042452 0.010298 98.837540 1686.963989
36 1686.963989 0.000954 0.001431 -0.040653 0.010378 99.441544 1686.963989
37 1686.963989 0.000954 0.001431 -0.038853 0.010440 100.045517 1686.963989
[R_Foot]
35 3041.560059 -30.531288 -11.204481 -9.776248 -10.348081 53.562725 3041.734131
36 3041.560059 -30.531288 -11.204481 -8.614732 -9.398968 54.615402 3041.734131
37 3041.560059 -30.531288 -11.204481 -7.478304 -8.604142 55.150837 3041.734131
[planeAlignerRight]
35 38.679413 -602.320129 19.798302 0.000000 -89.960434 -90.005180 603.885437
36 37.584846 -620.362732 17.709673 0.000000 -89.960434 -90.005180 621.752563
37 34.613365 -643.369385 15.273761 0.000000 -89.960434 -90.005180 644.480835
[R_Toe1_01]
35 -188.383347 -224.864899 21.052242 90.678513 1.045187 -167.647675 294.101532
36 -188.383347 -224.864899 21.052242 90.696762 1.145298 -166.235199 294.101532
37 -188.383347 -224.864899 21.052242 90.725433 1.260629 -164.191254 294.101532
[R_Toe2_01]
35 200.637817 -220.002121 -148.787384 -101.407860 10.942218 -43.478714 332.857574
36 200.637817 -220.002121 -148.787384 -101.780785 10.796641 -45.060631 332.857574
37 200.637817 -220.002121 -148.787384 -102.149292 10.641014 -46.640770 332.857574
[R_Toe3_01]
35 188.606735 -220.092957 191.126343 -74.162506 -16.033392 -46.201756 347.192566
36 188.606735 -220.092957 191.126343 -73.904030 -15.527539 -47.353516 347.192566
37 188.606735 -220.092957 191.126343 -73.437782 -14.960172 -49.193623 347.192566
[planeLockWeightRight]
35 999.999695 -0.000210 0.076276 -0.011823 -0.004379 -0.000027 999.999695
36 999.999695 -0.000200 0.076270 -0.011823 -0.004379 -0.000027 999.999695
37 999.999695 -0.000189 0.076263 -0.011823 -0.004379 -0.000027 999.999695
[R_Toe1_02]
35 413.762085 0.000477 -0.000119 0.001428 -20.493525 0.001428 413.762085
36 413.762085 0.000477 -0.000119 0.001424 -21.005114 0.001424 413.762085
37 413.762085 0.000477 -0.000119 0.001420 -21.516720 0.001420 413.762085
[R_Toe1_03]
35 464.317810 0.000000 0.001088 -0.055134 88.765999 -0.051637 464.317810
36 464.317810 0.000000 0.001088 -0.027188 87.410629 -0.023690 464.317810
37 464.317810 0.000000 0.001088 -0.015995 85.375511 -0.012496 464.317810
[R_Toe2_02]
35 342.234741 -0.000954 0.000238 -0.002340 -76.375671 -0.002340 342.234741
36 342.234741 -0.000954 0.000238 -0.002341 -75.852036 -0.002341 342.234741
37 342.234741 -0.000954 0.000238 -0.002342 -75.328423 -0.002342 342.234741
[R_Toe2_03]
35 420.210846 0.000715 -0.000268 -179.989944 82.068375 -179.993454 420.210846
36 420.210846 0.000715 -0.000268 -179.987701 83.755554 -179.991196 420.210846
37 420.210846 0.000715 -0.000268 -179.983795 85.442757 -179.987289 420.210846
[R_Toe3_02]
35 329.270355 -0.000477 -0.000954 0.001178 -79.717957 0.001178 329.270355
36 329.270355 -0.000477 -0.000954 0.001179 -79.242928 0.001179 329.270355
37 329.270355 -0.000477 -0.000954 0.001179 -78.767807 0.001179 329.270355
[R_Toe3_03]
35 439.137939 0.000238 0.001431 -179.994003 81.499199 -179.990494 439.137939
36 439.137939 0.000238 0.001431 -179.992538 82.851509 -179.989029 439.137939
37 439.137939 0.000238 0.001431 -179.990387 84.203598 -179.986877 439.137939
[Rear_Leg02]
35 1162.777710 -0.029802 0.005960 0.891737 -4.100758 -108.462006 1162.777710
36 1162.777710 -0.029802 0.005960 0.541925 -4.263954 -102.987663 1162.777710
37 1162.777710 -0.029802 0.005960 0.126344 -4.437049 -97.064026 1162.777710
[Rear_Leg03]
35 607.192505 -0.013351 -0.073195 0.007860 -0.003022 64.805824 607.192505
36 607.192505 -0.013351 -0.073195 0.006500 -0.002030 62.901680 607.192505
37 607.192505 -0.013351 -0.073195 0.006963 -0.001190 60.613068 607.192505
[Rear_Leg04]
35 995.874512 -0.020504 -0.011921 -0.040220 -0.017121 59.281147 995.874573
36 995.874512 -0.020504 -0.011921 -0.039893 -0.017335 55.371181 995.874573
37 995.874512 -0.020504 -0.011921 -0.039552 -0.017524 51.479389 995.874573
[Rear_Foot]
35 3096.176270 -0.067472 -0.041425 -12.979891 72.263947 167.054001 3096.176270
36 3096.176270 -0.067472 -0.041425 -13.044595 71.979881 168.677444 3096.176270
37 3096.176270 -0.067472 -0.041425 -12.845646 71.271248 170.532425 3096.176270
[planeAlignerCenter]
35 1.132622 78.442558 -719.188171 0.000009 0.000003 -179.999985 723.454285
36 1.130295 82.434814 -711.016113 0.000009 0.000003 -179.999985 715.779785
37 1.129456 86.780518 -708.668091 0.000009 0.000003 -179.999985 713.962646
[Rear_Toe1_01]
35 0.653352 83.966492 -371.173737 0.056902 22.984966 90.031128 380.553192
36 0.653352 83.966492 -371.173737 0.054754 22.565641 90.030083 380.553192
37 0.653352 83.966492 -371.173737 0.050601 22.576336 90.027122 380.553192
[Rear_Toe2_01]
35 178.200760 -294.826019 -362.060547 1.013172 47.673588 -69.776207 499.765686
36 178.200760 -294.826019 -362.060547 1.064805 47.354420 -69.658875 499.765686
37 178.200760 -294.826019 -362.060547 1.115165 47.035179 -69.542648 499.765686
[Rear_Toe3_01]
35 -153.359680 -308.780914 -362.060852 -1.272235 47.679867 -112.717194 499.952881
36 -153.359680 -308.780914 -362.060852 -1.330835 47.362629 -112.848106 499.952881
37 -153.359680 -308.780914 -362.060852 -1.388023 47.045292 -112.977753 499.952881
[planeLockWeightCenter]
35 1000.000000 0.000124 0.076106 -0.011814 -0.004373 -0.000015 1000.000000
36 1000.000000 0.000111 0.076096 -0.011814 -0.004373 -0.000015 1000.000000
37 1000.000000 0.000099 0.076086 -0.011814 -0.004373 -0.000015 1000.000000
[Rear_Toe1_02]
35 379.707825 0.194073 0.000477 -0.000767 -33.624729 0.000838 379.707855
36 379.707825 0.194073 0.000477 -0.000767 -33.624729 0.000838 379.707855
37 379.707825 0.194073 0.000477 -0.000767 -33.624729 0.000838 379.707855
[Rear_Toe1_03]
35 500.129700 0.165701 0.000119 0.007064 70.872231 0.007064 500.129761
36 500.129700 0.165701 0.000119 0.007016 70.741707 0.007016 500.129761
37 500.129700 0.165701 0.000119 0.006778 70.057800 0.006778 500.129761
[Rear_Toe2_02]
35 340.494507 0.000238 -0.000954 0.001175 -84.899033 0.001175 340.494507
36 340.494507 0.000238 -0.000954 0.001175 -85.458473 0.001175 340.494507
37 340.494507 0.000238 -0.000954 0.001174 -85.674469 0.001174 340.494507
[Rear_Toe2_03]
35 433.103577 0.000000 0.000238 179.984787 81.147209 179.984787 433.103546
36 433.103577 0.000000 0.000238 179.986298 80.177475 179.986298 433.103546
37 433.103577 0.000000 0.000238 179.987518 79.207832 179.987518 433.103546
[Rear_Toe3_02]
35 340.494141 -0.000358 -0.000477 0.001175 -84.786469 0.001175 340.494171
36 340.494141 -0.000358 -0.000477 0.001175 -85.233711 0.001175 340.494171
37 340.494141 -0.000358 -0.000477 0.001174 -85.680939 0.001174 340.494171
[Rear_Toe3_03]
35 433.103577 0.001431 -0.000238 -179.994080 81.407898 -179.990585 433.103546
36 433.103577 0.001431 -0.000238 -179.994858 80.446053 -179.991348 433.103546
37 433.103577 0.001431 -0.000238 -179.995483 79.484085 -179.991974 433.103546
[Back_Bone]
35 1312.175781 -701.934692 0.000954 2.721387 2.694739 -83.412727 1488.125488
36 1312.175781 -701.934692 0.000954 2.636139 3.033846 -82.984337 1488.125488
37 1312.175781 -701.934692 0.000954 2.377839 3.059946 -82.530098 1488.125488
[Head]
35 1406.159424 809.709290 0.001431 -4.455168 3.920796 0.086803 1622.625488
36 1406.159424 809.709290 0.001431 -4.500718 4.231844 -0.067302 1622.625488
37 1406.159424 809.709290 0.001431 -4.547129 4.542772 -0.221718 1622.625488
[Motor_Bone]
35 1158.364380 -417.834747 0.000477 2.853682 -2.893695 -108.875999 1231.419434
36 1158.364380 -417.834747 0.000477 5.387601 -1.836383 -107.820099 1231.419434
37 1158.364380 -417.834747 0.000477 -0.064436 0.133398 -105.853737 1231.419434
[Ping_Mechanism]
35 1217.240356 -430.947632 36.266068 0.000103 -0.000053 82.120995 1291.783691
36 1215.959473 -431.861542 27.974916 0.000103 -0.000053 82.120995 1290.675903
37 1216.060791 -433.281250 16.062712 0.000103 -0.000053 82.120995 1291.043823
[BN_LookIK]
35 193.241119 1380.371704 -0.002861 0.000000 89.965736 -31.038179 1393.832153
36 193.241119 1380.371704 -0.002861 0.000000 89.965736 -31.038179 1393.832153
37 193.241119 1380.371704 -0.002861 0.000000 89.965736 -31.038179 1393.832153
[bottomMouth]
35 -435.092926 615.759399 -0.000954 -0.000022 0.000016 73.527184 753.966492
36 -435.092926 615.759399 -0.000954 -0.000022 0.000016 73.527184 753.966492
37 -435.092926 615.759399 -0.000954 -0.000022 0.000016 73.527184 753.966492
[L_Mouth01]
35 554.440979 7.658243 838.222046 150.204178 23.759130 109.605339 1005.027161
36 554.440979 7.658243 838.222046 150.204178 23.759130 109.605339 1005.027161
37 554.440979 7.658243 838.222046 150.204178 23.759130 109.605339 1005.027161
[L_mouthFront]
35 551.629089 934.514771 339.150421 0.000081 2.804060 79.119301 1136.941284
36 551.629089 934.514771 339.150421 0.000081 2.804060 79.119301 1136.941284
37 551.629089 934.514771 339.150421 0.000081 2.804060 79.119301 1136.941284
[mouthGun]
35 55.332661 1627.420898 0.000000 0.000023 0.000009 -11.038128 1628.361328
36 55.332661 1627.420898 0.000000 0.000023 0.000009 -11.038128 1628.361328
37 55.332661 1627.420898 0.000000 0.000023 0.000009 -11.038128 1628.361328
[R_Mouth01]
35 554.442383 7.659197 -838.223938 29.795891 -23.759109 109.605331 1005.029541
36 554.442383 7.659197 -838.223938 29.795891 -23.759109 109.605331 1005.029541
37 554.442383 7.659197 -838.223938 29.795891 -23.759109 109.605331 1005.029541
[R_mouthFront]
35 551.629089 934.514282 -339.151367 0.000029 -2.803930 79.119133 1136.941162
36 551.629089 934.514282 -339.151367 0.000029 -2.803930 79.119133 1136.941162
37 551.629089 934.514282 -339.151367 0.000029 -2.803930 79.119133 1136.941162
[TopMouth]
35 461.269867 -56.106091 -0.008583 -0.000059 -0.000268 92.025169 464.669525
36 461.269867 -56.106091 -0.008583 -0.000059 -0.000268 92.025169 464.669525
37 461.269867 -56.106091 -0.008583 -0.000059 -0.000268 92.025169 464.669525
[weapon_bone]
35 -987.239868 1448.372803 0.001431 0.000000 89.965736 -31.038221 1752.833740
36 -987.239868 1448.372803 0.001431 0.000000 89.965736 -31.038221 1752.833740
37 -987.239868 1448.372803 0.001431 0.000000 89.965736 -31.038221 1752.833740
